USFL
nRows=117
nColumns=2
inDegrees=yes
endheader
time	soleus_r	
3.75	 48.977075	
3.8125	 48.819122	
3.875	 48.539704	
3.9375	 48.676172	
4	 48.729115	
4.0625	 48.690204	
4.125	 48.762671	
4.1875	 48.682438	
4.25	 48.740387	
4.3125	 48.740196	
4.375	 48.748364	
4.4375	 48.849171	
4.5	 48.867178	
4.5625	 48.820469	
4.625	 48.813724	
4.6875	 48.710624	
4.75	 48.854965	
4.8125	 48.983573	
4.875	 48.715047	
4.9375	 48.892144	
5	 48.878130	
5.0625	 48.982601	
5.125	 48.999407	
5.1875	 48.995372	
5.25	 48.973239	
5.3125	 48.986024	
5.375	 49.076725	
5.4375	 49.250744	
5.5	 49.162937	
5.5625	 48.950085	
5.625	 48.993275	
5.6875	 49.111529	
5.75	 48.386721	
5.8125	 48.243084	
5.875	 40.619642	
5.9375	 40.628837	
6	 40.175188	
6.0625	 39.909986	
6.125	 30.013891	
6.1875	 29.667453	
6.25	 29.550172	
6.3125	 29.709723	
6.375	 29.358145	
6.4375	 29.126261	
6.5	 29.179170	
6.5625	 28.957944	
6.625	 28.774710	
6.6875	 28.579222	
6.75	 28.244997	
6.8125	 27.847490	
6.875	 28.081261	
6.9375	 28.395459	
7	 28.599730	
7.0625	 28.733294	
7.125	 25.585683	
7.1875	 25.555278	
7.25	 25.479156	
7.3125	 25.497898	
7.375	 25.562968	
7.4375	 25.516350	
7.5	 25.395687	
7.5625	 25.302808	
7.625	 25.423226	
7.6875	 25.318463	
7.75	 25.392440	
7.8125	 25.513647	
7.875	 25.650236	
7.9375	 25.687504	
8	 25.688213	
8.0625	 25.687174	
8.125	 25.764171	
8.1875	 25.793712	
8.25	 25.831515	
8.3125	 25.811532	
8.375	 25.884967	
8.4375	 25.856554	
8.5	 25.864304	
8.5625	 25.993323	
8.625	 26.116193	
8.6875	 26.241184	
8.75	 26.284804	
8.8125	 26.168832	
8.875	 25.983061	
8.9375	 25.784512	
9	 25.973766	
9.0625	 25.950790	
9.125	 25.889200	
9.1875	 25.759702	
9.25	 25.819284	
9.3125	 25.959056	
9.375	 25.926163	
9.4375	 25.850710	
9.5	 25.841084	
9.5625	 25.731230	
9.625	 25.654754	
9.6875	 25.467969	
9.75	 25.575490	
9.8125	 25.598230	
9.875	 25.600508	
9.9375	 25.685756	
10	 25.646663	
10.0625	 25.567300	
10.125	 25.592778	
10.1875	 25.678291	
10.25	 25.972754	
10.3125	 26.624726	
10.375	 26.713056	
10.4375	 35.922624	
10.5	 36.575903	
10.5625	 36.748283	
10.625	 37.070303	
10.6875	 36.732949	
10.75	 36.861600	
10.8125	 37.457717	
10.875	 37.975687	
10.9375	 37.891541	
11	 37.528033	
